inDegrees=no
num_controls=7
num_derivatives=13
num_iterations=62
num_multipliers=7
num_parameters=0
num_slacks=7
num_states=26
objective=0.431803
objective_accelerations=0.051031
objective_balance=0.006975
objective_effort=0.031644
objective_height=0.341009
objective_ligament=0.001144
solver_duration=813.180230
status=Solve_Succeeded
success=true
DataType=double
version=3
OpenSimVersion=4.5
endheader
time	/jointset/ground_pelvis/pelvis_tilt/value	/jointset/ground_pelvis/pelvis_tx/value	/jointset/ground_pelvis/pelvis_ty/value	/jointset/hip_l/hip_flexion_l/value	/jointset/hip_l/hip_adduction_l/value	/jointset/hip_l/hip_rotation_l/value	/jointset/back/lumbar_extension/value	/jointset/patellofemoral_l/patellar_flexion_l/value	/jointset/knee_l/knee_flexion_l/value	/jointset/knee_l/knee_adduction_l/value	/jointset/knee_l/knee_rotation_l/value	/jointset/ankle_l/ankle_angle_l/value	/jointset/subtalar_l/subtalar_angle_l/value	/jointset/ground_pelvis/pelvis_tilt/speed	/jointset/ground_pelvis/pelvis_tx/speed	/jointset/ground_pelvis/pelvis_ty/speed	/jointset/hip_l/hip_flexion_l/speed	/jointset/hip_l/hip_adduction_l/speed	/jointset/hip_l/hip_rotation_l/speed	/jointset/back/lumbar_extension/speed	/jointset/patellofemoral_l/patellar_flexion_l/speed	/jointset/knee_l/knee_flexion_l/speed	/jointset/knee_l/knee_adduction_l/speed	/jointset/knee_l/knee_rotation_l/speed	/jointset/ankle_l/ankle_angle_l/speed	/jointset/subtalar_l/subtalar_angle_l/speed	/forceset/tau_hip_flexion_l	/forceset/tau_hip_adduction_l	/forceset/tau_hip_rotation_l	/forceset/tau_knee_flexion_l	/forceset/tau_ankle_angle_l	/forceset/tau_subtalar_angle_l	/forceset/tau_lumbar_extension	lambda_cid13_p0	lambda_cid13_p1	lambda_cid13_p2	lambda_cid13_p3	lambda_cid13_p4	lambda_cid13_p5	lambda_cid14_p0	/jointset/ground_pelvis/pelvis_tilt/accel	/jointset/ground_pelvis/pelvis_tx/accel	/jointset/ground_pelvis/pelvis_ty/accel	/jointset/hip_l/hip_flexion_l/accel	/jointset/hip_l/hip_adduction_l/accel	/jointset/hip_l/hip_rotation_l/accel	/jointset/back/lumbar_extension/accel	/jointset/patellofemoral_l/patellar_flexion_l/accel	/jointset/knee_l/knee_flexion_l/accel	/jointset/knee_l/knee_adduction_l/accel	/jointset/knee_l/knee_rotation_l/accel	/jointset/ankle_l/ankle_angle_l/accel	/jointset/subtalar_l/subtalar_angle_l/accel	gamma_cid13_p0	gamma_cid13_p1	gamma_cid13_p2	gamma_cid13_p3	gamma_cid13_p4	gamma_cid13_p5	gamma_cid14_p0
0	-0.155951887201184	0.05700484474235938	0.8978593421534165	0.3774924667018715	-0.2611193590831011	-0.2386590888199208	-0.01265067647494873	0.03223648243725788	0.03223648243721463	-0.1745328879728591	0.1417902555946287	-0.04231377076293093	-0.01164486151089715	0	0	0	0	0	0	0	0	0	0	0	0	0	0.09686222902271263	-0.01016412069345527	-0.03721129126985918	-0.2458926064443885	0.2587026695594289	-0.07600834718951403	-0.04993478932382172	40.1817245470488	19.92306511249386	3.333946295656925	-4.371486040523241	-591.2496077818789	-29.07691440500795	-38.09097962310334	-2.108201989226465	-1.42252699693102	-0.88926963550807	10.1317090038716	-1.223698391172626	3.26276099177661	-4.255948442773527	10.64055107865979	10.64055107866024	0.1715354115872995	0.4397537144566525	2.877664552587166	-0.5848629889204568	-2.136086475518663e-08	-3.146125464471578e-08	3.65963976605495e-08	1.849867914733791e-08	-1.657127747248105e-07	-2.74998940442919e-08	-7.592679350689784e-09
0.01	-0.1560569376214275	0.05693367474797853	0.8978151821029652	0.3779943233610457	-0.2611807661710126	-0.238494249698074	-0.01288067923361674	0.03276052827938355	0.03276052827937004	-0.174526200722364	0.1418079904715454	-0.04217366261509857	-0.01167521255467156	-0.0214061841515327	-0.01426875521605034	-0.008883981113544957	0.1008119978023804	-0.01227940132423186	0.03303256549129412	-0.04728010866613605	0.1047337094360831	0.1047337094360839	0.001313441945152203	0.003457239688293005	0.02790504889000488	-0.0060988319156925	0.1196665725525779	-0.02598781802443319	-0.04227413080609883	-0.2810009222489898	0.3049399818685036	-0.07698511473072718	-0.06709921543583343	55.06072501690946	18.26660669453185	2.998881685509784	-13.92951251101113	-590.8545634006011	-35.07758965867151	-38.10649521263419	-2.216240142394853	-1.434259535042007	-0.895791145407872	10.12204341319391	-1.229755033122173	3.333208085412449	-5.155975619185369	10.37846354795856	10.37846354795822	0.1076463172366242	0.285240848459434	2.729436588455183	-0.6266857249750613	-7.750087441967575e-08	8.325524173369213e-08	1.743432460849877e-07	4.526790175608682e-08	-1.914376758026808e-07	-6.20928040612851e-08	-2.73823113243669e-08
0.02	-0.1563879325860081	0.05671877525121725	0.8976806164821501	0.3795175196471807	-0.2613649060781882	-0.2379971441697782	-0.01362186978706081	0.03432964775017729	0.03432964775017675	-0.1745070995059788	0.1418576040958801	-0.04175800167211009	-0.01176741040401831	-0.04518890887412474	-0.02874590047608665	-0.018081114072827	0.2042679253955562	-0.02454656385140856	0.0664532812868604	-0.1022375589583739	0.2090147257472193	0.2090147257472166	0.002482793140582408	0.006375749474335613	0.05511055902998743	-0.01236936111464685	0.1424709160819715	-0.04181151535545469	-0.04733697034222568	-0.3161092380540795	0.3511772941773876	-0.07796188227202763	-0.08426364154792912	70.03024460103931	16.59584233539954	2.664339851740877	-23.71359344576079	-589.1538985353095	-40.95261966843891	-38.152773208604	-2.583510103438118	-1.464205005728162	-0.9519000046555183	10.66049496203042	-1.221250631762149	3.340391052631073	-5.791416767994052	10.55001245367063	10.55001245367027	0.1427172616419198	0.332007734006677	2.737756802582753	-0.6192024455733522	-1.336408840841649e-07	1.979717381121e-07	3.120900945094259e-07	7.203712436483574e-08	-2.171625768805511e-07	-9.66857140782783e-08	-4.717194329804403e-08
0.03	-0.1569615071035264	0.05635958532592673	0.8974534756348699	0.3820761092536336	-0.261669862804717	-0.2371678632975809	-0.01492977085204161	0.03693432202745604	0.03693432202745656	-0.1744754186575586	0.1419358017552028	-0.04107338055675804	-0.01192131618013946	-0.06920137983115501	-0.04297586701303514	-0.02730125987486457	0.3066563186047331	-0.03626715908164751	0.09907536553074503	-0.1585096680506307	0.3113666548463782	0.311366654846373	0.00399278408834927	0.009384482472930389	0.08174629715780182	-0.01825592714238558	0.1285704904701093	-0.03453164386554732	-0.04464957350569315	-0.2983841344592015	0.3277783577421836	-0.07545664413692287	-0.07335373797757083	62.57032521431593	16.60507166549471	2.90150743096583	-19.49467600279913	-589.9374358713047	-39.25910394358343	-38.22868448568727	-2.26143823401809	-1.38494532669836	-0.900246078219912	9.908940270513888	-1.120882845282784	3.173945175304597	-5.420160081954179	9.994771422802406	9.994771422802348	0.1761205839567565	0.303371899157604	2.616369518002382	-0.5500699932603287	-1.216354612032115e-07	2.118022174327587e-07	1.988174249851585e-07	8.984966579672975e-08	-3.415073762062449e-07	-4.212628987938691e-09	-2.816208943061546e-08
